<svg id="Layer_1" data-name="Layer 1" xmlns="http://www.w3.org/2000/svg" viewBox="0 0 453.29 164.44"><defs><style>.cls-1{fill:#006e43;}</style></defs><path class="cls-1" d="M188.19,108.36h4.45v4a7.31,7.31,0,0,1-3.3.62c-3.77,0-6.24-2.22-6.24-5.48s2.45-5.43,6.22-5.43a10.07,10.07,0,0,1,4.26,1l.15-1.58a10,10,0,0,0-4.39-1c-4.81,0-8,2.85-8,7s3.21,7,8,7a9.85,9.85,0,0,0,4.85-1.13v-6.53h-6.07Z"/><path class="cls-1" d="M206.88,100.67l-5.65,13.65H203l1.26-3.17h7.21l1.27,3.17h1.74l-5.64-13.65Zm-2.1,9.06,3.07-7.33,3.07,7.33Z"/><path class="cls-1" d="M232.68,105.38c0-3.23-2.2-4.71-4.77-4.71h-6v13.65h1.66V110h4.34l3.44,4.28h2.08l-3.76-4.57A4.43,4.43,0,0,0,232.68,105.38Zm-5,3.16h-4.18v-6.36h4.18a3,3,0,0,1,3.26,3.21A3.09,3.09,0,0,1,227.72,108.54Z"/><path class="cls-1" d="M246.72,100.67h-5.59v13.65h5.57c4.57,0,6.91-2.63,6.91-6.82C253.61,103.47,251.28,100.67,246.72,100.67Zm-.1,12.13h-3.83V102.18h3.83c3.53,0,5.3,2,5.3,5.32S250.15,112.8,246.62,112.8Z"/><polygon class="cls-1" points="263.59 108.06 270.67 108.06 270.67 106.55 263.59 106.55 263.59 102.17 271.72 102.17 271.72 100.67 261.93 100.67 261.93 114.32 271.93 114.32 271.93 112.82 263.59 112.82 263.59 108.06"/><polygon class="cls-1" points="290.9 111.86 281.62 100.67 279.88 100.67 279.88 114.32 281.55 114.32 281.55 103.17 290.82 114.32 292.56 114.32 292.56 100.67 290.9 100.67 290.9 111.86"/><path class="cls-1" d="M323,106.9h-1.53a6.48,6.48,0,0,1-.9,4l-4.44-4.19c-1-1-1.58-1.6-1.58-2.81s1.27-2,2.86-2a7.06,7.06,0,0,1,2.9.63l.2-1.46a8.24,8.24,0,0,0-3.12-.62c-2.49,0-4.47,1.25-4.47,3.46a4,4,0,0,0,1.18,2.78,4.4,4.4,0,0,0-2.6,3.72c0,2.43,2.13,4.1,5.1,4.1a5.86,5.86,0,0,0,4.08-1.5l1.38,1.3h2.23l-2.56-2.44A7.91,7.91,0,0,0,323,106.9ZM316.57,113c-2,0-3.48-1.06-3.48-2.62a3,3,0,0,1,1.82-2.71l4.63,4.26A4.16,4.16,0,0,1,316.57,113Z"/><path class="cls-1" d="M348.12,100.67h-6v13.65h1.66V110h4.38a4.54,4.54,0,0,0,4.76-4.66A4.41,4.41,0,0,0,348.12,100.67Zm-.19,7.87h-4.19v-6.36h4.19a3,3,0,0,1,3.25,3.21A3.08,3.08,0,0,1,347.93,108.54Z"/><polygon class="cls-1" points="362.4 108.06 369.48 108.06 369.48 106.55 362.4 106.55 362.4 102.17 370.54 102.17 370.54 100.67 360.75 100.67 360.75 114.32 370.75 114.32 370.75 112.82 362.4 112.82 362.4 108.06"/><polygon class="cls-1" points="377.68 102.21 382.25 102.21 382.25 114.32 383.9 114.32 383.9 102.21 388.47 102.21 388.47 100.67 377.68 100.67 377.68 102.21"/><polygon class="cls-1" points="227.33 82.19 210.19 82.19 210.19 74.8 223.6 74.8 223.6 68.02 210.19 68.02 210.19 61.03 226.65 61.03 225.39 54.36 202.18 54.36 202.18 88.87 226.06 88.87 227.33 82.19"/><polygon class="cls-1" points="263.87 54.36 256 54.36 256 76.45 241.81 54.36 233.68 54.36 233.68 88.87 241.55 88.87 241.55 66.78 255.64 88.87 263.87 88.87 263.87 54.36"/><polygon class="cls-1" points="270.14 54.36 268.97 61.03 279.16 61.03 279.16 88.87 288 88.87 288 61.03 298.51 61.03 297.11 54.36 270.14 54.36"/><polygon class="cls-1" points="388.8 82.19 388.8 54.36 380.78 54.36 380.78 88.87 403.9 88.87 405.17 82.19 388.8 82.19"/><path class="cls-1" d="M193.57,87.52V79.71a16.94,16.94,0,0,1-9.66,2.79c-5.75,0-11.18-3.51-11.18-10.86,0-6.83,4.66-10.92,11.38-10.92,6.06,0,9.26,2.33,9.46,2.48v-8a28.32,28.32,0,0,0-9.25-1.42c-12.21,0-19.66,8.17-19.66,18.62,0,11.28,8.74,17.13,18.78,17.13A24.55,24.55,0,0,0,193.57,87.52Z"/><path class="cls-1" d="M360.92,54.36h-7.79l-8,21.57h-4.28l-2.48,6.7h4.29l-2.3,6.24h7.92l2.17-6.21h12.88l2.17,6.21h8.13Zm-8.11,21.57,4.08-11.69L361,75.93Z"/><path class="cls-1" d="M326.1,75.83A12.29,12.29,0,0,0,328,75c3.35-1.88,5-5,5-9.44,0-11.2-10.93-11.2-12.93-11.2H304V88.87h8V76.76h5.43l7.67,12.11h9.52Zm-3.8-5.74H312V61H322.3l3,4.53Z"/><path class="cls-1" d="M51.09,116.33h4V73.18a51.63,51.63,0,0,0-4,43.15Z"/><path class="cls-1" d="M60.31,65.77v50.56h7V58.94A51.64,51.64,0,0,0,60.31,65.77Z"/><path class="cls-1" d="M106,70.56l4.72-3.14L151.12,94.2a52.05,52.05,0,0,0-1.82-9.57L117.06,63.24l4.73-3.13L146,76.17a51.84,51.84,0,0,0-17.31-19.84l-.29-.2a52.43,52.43,0,0,0-5.23-3.05c-.65-.33-1.3-.65-2-.95L79.46,79.83V73.56l35.79-23.74a52,52,0,0,0-9.56-2L79.46,65.2V58.93L96.62,47.55A51.35,51.35,0,0,0,73.36,54.7l-.86.52v61.11h7V88.19L99.74,74.74,120,88.19v28.14h7V92.81l5.22,3.46v20.06h7V100.9l5.22,3.46v12h4a51.28,51.28,0,0,0,2.11-7.92,52.72,52.72,0,0,0,.82-7.81Z"/><rect class="cls-1" x="95.37" y="98.22" width="8.71" height="18.1"/></svg>